<?xml version="1.0" encoding="UTF-8"?>
<svg id="Layer_1" data-name="Layer 1" xmlns="http://www.w3.org/2000/svg" viewBox="0 0 492 492">
  <defs>
    <style>
      .cls-1 {
        fill: #fff;
      }

      .cls-2 {
        fill: none;
        stroke: #fff;
        stroke-linecap: round;
        stroke-miterlimit: 10;
        stroke-width: 16px;
      }
    </style>
  </defs>
  <path class="cls-1" d="M246,16c31.06,0,61.18,6.08,89.52,18.07,27.39,11.58,51.99,28.17,73.11,49.3,21.13,21.13,37.71,45.73,49.3,73.11,11.99,28.35,18.07,58.46,18.07,89.52s-6.08,61.18-18.07,89.52c-11.58,27.39-28.17,51.99-49.3,73.11-21.13,21.13-45.73,37.71-73.11,49.3-28.35,11.99-58.46,18.07-89.52,18.07s-61.18-6.08-89.52-18.07c-27.39-11.58-51.99-28.17-73.11-49.3-21.13-21.13-37.71-45.73-49.3-73.11-11.99-28.35-18.07-58.46-18.07-89.52s6.08-61.18,18.07-89.52c11.58-27.39,28.17-51.99,49.3-73.11,21.13-21.13,45.73-37.71,73.11-49.3,28.35-11.99,58.46-18.07,89.52-18.07m0-16C110.14,0,0,110.14,0,246s110.14,246,246,246,246-110.14,246-246S381.86,0,246,0h0Z"/>
  <g>
    <ellipse class="cls-1" cx="133" cy="173" rx="42.84" ry="53"/>
    <ellipse class="cls-1" cx="359" cy="173" rx="42.84" ry="53"/>
  </g>
  <path class="cls-2" d="M407.5,268c0,76.77-72.31,139-161.5,139s-161.5-62.23-161.5-139"/>
</svg>