<?xml version="1.0" encoding="UTF-8"?>
<svg id="Layer_1" data-name="Layer 1" xmlns="http://www.w3.org/2000/svg" viewBox="0 0 639.6 639.6">
  <defs>
    <style>
      .cls-1 {
        fill: #fff;
      }

      .cls-2 {
        fill: none;
        stroke: #fff;
        stroke-linecap: round;
        stroke-miterlimit: 10;
        stroke-width: 35px;
      }
    </style>
  </defs>
  <path class="cls-1" d="M319.8,35c38.46,0,75.76,7.53,110.85,22.37,33.91,14.34,64.37,34.88,90.54,61.05,26.17,26.17,46.71,56.63,61.05,90.54,14.84,35.09,22.37,72.38,22.37,110.85s-7.53,75.76-22.37,110.85c-14.34,33.91-34.88,64.37-61.05,90.54-26.17,26.17-56.63,46.71-90.54,61.05-35.09,14.84-72.38,22.37-110.85,22.37s-75.76-7.53-110.85-22.37c-33.91-14.34-64.37-34.88-90.54-61.05-26.17-26.17-46.71-56.63-61.05-90.54-14.84-35.09-22.37-72.38-22.37-110.85s7.53-75.76,22.37-110.85c14.34-33.91,34.88-64.37,61.05-90.54,26.17-26.17,56.63-46.71,90.54-61.05,35.09-14.84,72.38-22.37,110.85-22.37m0-35C143.18,0,0,143.18,0,319.8s143.18,319.8,319.8,319.8,319.8-143.18,319.8-319.8S496.42,0,319.8,0h0Z"/>
  <g>
    <ellipse class="cls-1" cx="172.9" cy="224.9" rx="55.69" ry="68.9"/>
    <ellipse class="cls-1" cx="466.7" cy="224.9" rx="55.69" ry="68.9"/>
  </g>
  <path class="cls-2" d="M529.75,348.4c0,99.8-94,180.7-209.95,180.7s-209.95-80.9-209.95-180.7"/>
</svg>